HIERARCHY
ROOT Hips
{
	OFFSET 0.00 0.00 0.00
	CHANNELS 6 Xposition Yposition Zposition Xrotation Yrotation Zrotation
	JOINT Spine
	{
		OFFSET 0.00000 0.84964 1.27446
		CHANNELS 3 Xrotation Yrotation Zrotation
		JOINT Spine1
		{
			OFFSET 0.00000 0.29508 1.67346
			CHANNELS 3 Xrotation Yrotation Zrotation
			JOINT Spine2
			{
				OFFSET 0.00000 0.14810 1.69281
				CHANNELS 3 Xrotation Yrotation Zrotation
				JOINT Spine3
				{
					OFFSET 0.00000 0.00000 1.69928
					CHANNELS 3 Xrotation Yrotation Zrotation
					JOINT Neck
					{
						OFFSET 0.00000 -0.63723 4.46061
						CHANNELS 3 Xrotation Yrotation Zrotation
						JOINT Head
						{
							OFFSET 0.00000 -0.40573 2.30101
							CHANNELS 3 Xrotation Yrotation Zrotation
							End Site
							{
								OFFSET 0.00000 0.00000 2.75071
							}
						}
					}
					JOINT RightShoulder
					{
						OFFSET -0.72014 -1.20023 3.88874
						CHANNELS 3 Xrotation Yrotation Zrotation
						JOINT RightArm
						{
							OFFSET -3.57668 -0.00000 0.00000
							CHANNELS 3 Xrotation Yrotation Zrotation
							JOINT RightForeArm
							{
								OFFSET -5.92485 -0.00000 0.00000
								CHANNELS 3 Xrotation Yrotation Zrotation
								JOINT RightHand
								{
									OFFSET -6.63013 -0.00000 0.00000
									CHANNELS 3 Xrotation Yrotation Zrotation
									JOINT RightHandEnd
									{
										OFFSET -1.65321 -0.00000 0.00000
										CHANNELS 3 Xrotation Yrotation Zrotation
										End Site
										{
											OFFSET -1.65321 -0.00000 0.00000
										}
									}
									JOINT RightHandThumb1
									{
										OFFSET -0.66129 -1.10214 -0.44086
										CHANNELS 3 Xrotation Yrotation Zrotation
										End Site
										{
											OFFSET -1.59688 -0.42788 0.00000
										}
									}
								}
							}
						}
					}
					JOINT LeftShoulder
					{
						OFFSET 0.72014 -1.20023 3.88874
						CHANNELS 3 Xrotation Yrotation Zrotation
						JOINT LeftArm
						{
							OFFSET 3.57668 0.00000 0.00000
							CHANNELS 3 Xrotation Yrotation Zrotation
							JOINT LeftForeArm
							{
								OFFSET 5.92485 0.00000 0.00000
								CHANNELS 3 Xrotation Yrotation Zrotation
								JOINT LeftHand
								{
									OFFSET 6.63013 0.00000 0.00000
									CHANNELS 3 Xrotation Yrotation Zrotation
									JOINT LeftHandEnd
									{
										OFFSET 1.65321 0.00000 0.00000
										CHANNELS 3 Xrotation Yrotation Zrotation
										End Site
										{
											OFFSET 1.65321 0.00000 0.00000
										}
									}
									JOINT LeftHandThumb1
									{
										OFFSET 0.66129 -1.10214 -0.44086
										CHANNELS 3 Xrotation Yrotation Zrotation
										End Site
										{
											OFFSET 1.59688 -0.42788 0.00000
										}
									}
								}
							}
						}
					}
				}
			}
		}
	}
	JOINT RightUpLeg
	{
		OFFSET -2.13640 0.00000 -0.62412
		CHANNELS 3 Xrotation Yrotation Zrotation
		JOINT RightLeg
		{
			OFFSET 0.00000 0.00000 -11.49360
			CHANNELS 3 Xrotation Yrotation Zrotation
			JOINT RightFoot
			{
				OFFSET 0.00000 0.00000 -8.79036
				CHANNELS 3 Xrotation Yrotation Zrotation
				JOINT RightToeBase
				{
					OFFSET 0.00000 -3.94625 -1.43632
					CHANNELS 3 Xrotation Yrotation Zrotation
					End Site
					{
						OFFSET 0.00000 -1.72833 0.00000
					}
				}
			}
		}
	}
	JOINT LeftUpLeg
	{
		OFFSET 2.13640 0.00000 -0.62412
		CHANNELS 3 Xrotation Yrotation Zrotation
		JOINT LeftLeg
		{
			OFFSET 0.00000 0.00000 -11.49360
			CHANNELS 3 Xrotation Yrotation Zrotation
			JOINT LeftFoot
			{
				OFFSET 0.00000 0.00000 -8.79036
				CHANNELS 3 Xrotation Yrotation Zrotation
				JOINT LeftToeBase
				{
					OFFSET 0.00000 -3.94625 -1.43632
					CHANNELS 3 Xrotation Yrotation Zrotation
					End Site
					{
						OFFSET 0.00000 -1.72833 0.00000
					}
				}
			}
		}
	}
}
MOTION
Frames: 15
Frame Time: 0.008342
 -0.3193 -0.3210 23.7276 -3.4884 -1.6060 -178.1681 -1.3771 -0.3555 0.1911 -0.2565 0.6480 0.0008 -0.3999 1.9075 -4.2528 -1.2071 -0.0420 0.0517 -3.8591 -13.0393 10.0646 9.2589 -4.5303 38.1121 -5.2415 1.3794 -6.5037 -25.4952 -2.8139 -12.0165 0.0000 0.0000 11.9307 12.6934 -15.7816 -7.8913 -0.0000 0.0000 -0.0000 -0.0000 0.0000 -0.0000 -7.9204 -6.0019 -2.5856 -19.1452 13.8464 -0.9874 -0.0000 0.0000 -9.4193 -4.3563 -17.2124 20.4785 -0.0000 -0.0000 0.0000 -0.0000 0.0000 0.0000 0.8310 2.1136 -58.4605 0.0109 0.0000 -0.0000 -0.7279 -8.6657 43.8257 -0.1230 0.0000 -0.0000 0.2676 -3.2507 5.7732 -7.0426 0.0000 -0.0000 -0.6058 1.2648 -29.3367 -1.5874 -0.0000 -0.0000
 -0.3171 -0.3198 23.7276 -3.4919 -1.6066 -178.1705 -1.3758 -0.3554 0.1919 -0.2574 0.6508 0.0012 -0.3990 1.9030 -4.2605 -1.2083 -0.0453 0.0522 -3.8564 -13.0418 10.0613 9.2620 -4.5307 38.1021 -5.2378 1.3702 -6.5037 -25.4978 -2.8072 -12.0193 -0.0000 0.0000 11.9424 12.7009 -15.7281 -7.9139 -0.0000 0.0000 -0.0000 0.0000 -0.0000 -0.0000 -7.9197 -6.0062 -2.5778 -19.1569 13.8495 -0.9799 -0.0000 0.0000 -9.4148 -4.3523 -17.2195 20.4811 -0.0000 -0.0000 0.0000 -0.0000 0.0000 -0.0000 0.8310 2.1054 -58.4585 0.0070 -0.0000 0.0000 -0.7322 -8.6656 43.8246 -0.1237 0.0000 0.0000 0.2674 -3.2574 5.7760 -7.0427 -0.0000 -0.0000 -0.6064 1.2684 -29.3344 -1.5887 -0.0000 0.0000
 -0.3140 -0.3182 23.7277 -3.4977 -1.6089 -178.1730 -1.3755 -0.3564 0.1935 -0.2591 0.6518 0.0017 -0.3965 1.9002 -4.2713 -1.2096 -0.0491 0.0525 -3.8520 -13.0480 10.0564 9.2664 -4.5302 38.0882 -5.2320 1.3536 -6.5049 -25.4999 -2.7961 -12.0221 0.0000 0.0000 11.9580 12.7103 -15.6567 -7.9421 -0.0000 -0.0000 -0.0000 0.0000 -0.0000 -0.0000 -7.9204 -6.0180 -2.5707 -19.1719 13.8592 -0.9613 -0.0000 -0.0000 -9.4129 -4.3442 -17.2295 20.4860 -0.0000 0.0000 -0.0000 -0.0000 0.0000 0.0000 0.8306 2.0916 -58.4561 -0.0005 0.0000 -0.0000 -0.7370 -8.6652 43.8227 -0.1245 0.0000 0.0000 0.2667 -3.2686 5.7792 -7.0438 -0.0000 -0.0000 -0.6068 1.2744 -29.3316 -1.5911 -0.0000 -0.0000
 -0.3098 -0.3162 23.7278 -3.5057 -1.6111 -178.1756 -1.3750 -0.3570 0.1940 -0.2609 0.6534 0.0017 -0.3947 1.8978 -4.2819 -1.2104 -0.0573 0.0515 -3.8458 -13.0515 10.0508 9.2721 -4.5308 38.0692 -5.2258 1.3384 -6.5087 -25.5007 -2.7876 -12.0265 -0.0000 0.0000 11.9787 12.7223 -15.5652 -7.9784 -0.0000 0.0000 -0.0000 0.0000 -0.0000 -0.0000 -7.9211 -6.0270 -2.5588 -19.1902 13.8693 -0.9415 0.0000 -0.0000 -9.4095 -4.3370 -17.2392 20.4938 0.0000 -0.0000 0.0000 -0.0000 0.0000 -0.0000 0.8290 2.0753 -58.4514 -0.0078 -0.0000 -0.0000 -0.7457 -8.6643 43.8178 -0.1255 0.0000 -0.0000 0.2645 -3.2823 5.7833 -7.0442 -0.0000 -0.0000 -0.6074 1.2820 -29.3291 -1.5947 0.0000 -0.0000
 -0.3047 -0.3139 23.7279 -3.5277 -1.6153 -178.1777 -1.3900 -0.3617 0.1948 -0.2621 0.6578 0.0012 -0.3896 1.8970 -4.2968 -1.2108 -0.0680 0.0524 -3.8384 -13.0575 10.0433 9.2795 -4.5306 38.0458 -5.2197 1.3207 -6.5147 -25.5010 -2.7801 -12.0349 -0.0000 0.0000 12.0049 12.7358 -15.4544 -8.0209 -0.0000 -0.0000 -0.0000 -0.0000 0.0000 -0.0000 -7.9238 -6.0384 -2.5468 -19.2132 13.8834 -0.9127 0.0000 0.0000 -9.4081 -4.3296 -17.2497 20.5048 -0.0000 0.0000 0.0000 -0.0000 0.0000 -0.0000 0.8140 2.0538 -58.4457 -0.0171 0.0000 0.0000 -0.7561 -8.6618 43.8105 -0.1254 -0.0000 0.0000 0.2476 -3.3008 5.7857 -7.0427 0.0000 -0.0000 -0.6088 1.2916 -29.3255 -1.5979 -0.0000 -0.0000
 -0.2987 -0.3111 23.7280 -3.5357 -1.6163 -178.1813 -1.3862 -0.3593 0.1977 -0.2661 0.6550 0.0009 -0.3854 1.8933 -4.3115 -1.2114 -0.0718 0.0514 -3.8269 -13.0658 10.0342 9.2876 -4.5300 38.0183 -5.2087 1.2945 -6.5204 -25.5008 -2.7653 -12.0442 -0.0000 0.0000 12.0322 12.7476 -15.3374 -8.0665 -0.0000 -0.0000 -0.0000 0.0000 -0.0000 -0.0000 -7.9273 -6.0586 -2.5356 -19.2442 13.9079 -0.8727 -0.0000 -0.0000 -9.4067 -4.3196 -17.2639 20.5191 -0.0000 0.0000 0.0000 -0.0000 0.0000 -0.0000 0.8153 2.0326 -58.4381 -0.0271 0.0000 0.0000 -0.7702 -8.6599 43.8029 -0.1254 -0.0000 -0.0000 0.2487 -3.3182 5.7962 -7.0440 -0.0000 -0.0000 -0.6082 1.3029 -29.3276 -1.6028 -0.0000 0.0000
 -0.2919 -0.3080 23.7282 -3.5486 -1.6204 -178.1837 -1.3870 -0.3632 0.1999 -0.2698 0.6567 0.0002 -0.3801 1.8919 -4.3276 -1.2108 -0.0814 0.0511 -3.8136 -13.0717 10.0243 9.2968 -4.5291 37.9863 -5.1996 1.2774 -6.5306 -25.4988 -2.7627 -12.0599 -0.0000 -0.0000 12.0638 12.7626 -15.2048 -8.1189 0.0000 0.0000 -0.0000 -0.0000 -0.0000 -0.0000 -7.9315 -6.0737 -2.5221 -19.2821 13.9330 -0.8310 -0.0000 0.0000 -9.4026 -4.3118 -17.2753 20.5351 0.0000 0.0000 -0.0000 0.0000 -0.0000 -0.0000 0.8129 2.0047 -58.4295 -0.0402 0.0000 0.0000 -0.7842 -8.6569 43.7929 -0.1248 -0.0000 0.0000 0.2452 -3.3417 5.8033 -7.0452 0.0000 0.0000 -0.6081 1.3167 -29.3280 -1.6080 -0.0000 -0.0000
 -0.2842 -0.3049 23.7284 -3.5719 -1.6257 -178.1860 -1.3998 -0.3691 0.2017 -0.2731 0.6595 0.0001 -0.3722 1.8914 -4.3446 -1.2091 -0.0925 0.0518 -3.7983 -13.0770 10.0135 9.3066 -4.5279 37.9505 -5.1896 1.2596 -6.5438 -25.4960 -2.7615 -12.0780 0.0000 0.0000 12.0949 12.7775 -15.0684 -8.1728 0.0000 0.0000 0.0000 -0.0000 -0.0000 -0.0000 -7.9377 -6.0889 -2.5100 -19.3301 13.9638 -0.7803 -0.0000 0.0000 -9.3984 -4.3023 -17.2859 20.5526 0.0000 0.0000 -0.0000 0.0000 0.0000 -0.0000 0.7998 1.9737 -58.4197 -0.0540 0.0000 -0.0000 -0.7995 -8.6521 43.7817 -0.1239 0.0000 0.0000 0.2302 -3.3681 5.8109 -7.0447 0.0000 0.0000 -0.6083 1.3325 -29.3296 -1.6132 -0.0000 -0.0000
 -0.2761 -0.3015 23.7285 -3.5855 -1.6284 -178.1899 -1.3997 -0.3714 0.2048 -0.2786 0.6583 -0.0004 -0.3650 1.8894 -4.3575 -1.2060 -0.0985 0.0506 -3.7802 -13.0824 10.0022 9.3169 -4.5255 37.9119 -5.1780 1.2437 -6.5586 -25.4923 -2.7644 -12.0995 -0.0000 0.0000 12.1233 12.7906 -14.9323 -8.2283 -0.0000 -0.0000 -0.0000 -0.0000 -0.0000 -0.0000 -7.9449 -6.1068 -2.4984 -19.3889 14.0030 -0.7238 -0.0000 -0.0000 -9.3907 -4.2911 -17.2978 20.5707 -0.0000 0.0000 0.0000 0.0000 -0.0000 0.0000 0.7973 1.9440 -58.4072 -0.0676 -0.0000 -0.0000 -0.8173 -8.6472 43.7699 -0.1225 0.0000 -0.0000 0.2273 -3.3931 5.8252 -7.0458 -0.0000 -0.0000 -0.6074 1.3495 -29.3368 -1.6187 -0.0000 0.0000
 -0.2676 -0.2985 23.7287 -3.6183 -1.6334 -178.1934 -1.4227 -0.3778 0.2070 -0.2829 0.6587 -0.0004 -0.3542 1.8900 -4.3700 -1.2010 -0.1063 0.0501 -3.7612 -13.0854 9.9912 9.3276 -4.5237 37.8710 -5.1667 1.2304 -6.5769 -25.4884 -2.7724 -12.1235 -0.0000 0.0000 12.1485 12.8022 -14.7990 -8.2855 -0.0000 0.0000 -0.0000 -0.0000 0.0000 0.0000 -7.9531 -6.1185 -2.4878 -19.4589 14.0424 -0.6637 -0.0000 0.0000 -9.3806 -4.2807 -17.3078 20.5884 -0.0000 0.0000 0.0000 0.0000 -0.0000 -0.0000 0.7740 1.9113 -58.3940 -0.0811 -0.0000 -0.0000 -0.8348 -8.6398 43.7575 -0.1206 0.0000 -0.0000 0.2020 -3.4214 5.8386 -7.0432 -0.0000 0.0000 -0.6076 1.3681 -29.3450 -1.6231 -0.0000 0.0000
 -0.2588 -0.2954 23.7289 -3.6306 -1.6371 -178.1992 -1.4217 -0.3842 0.2106 -0.2894 0.6585 -0.0008 -0.3444 1.8900 -4.3778 -1.1957 -0.1124 0.0509 -3.7394 -13.0863 9.9794 9.3380 -4.5201 37.8286 -5.1540 1.2284 -6.5974 -25.4841 -2.7925 -12.1548 -0.0000 0.0000 12.1678 12.8123 -14.6709 -8.3416 -0.0000 -0.0000 0.0000 -0.0000 0.0000 0.0000 -7.9614 -6.1339 -2.4808 -19.5412 14.0935 -0.5975 -0.0000 0.0000 -9.3649 -4.2673 -17.3194 20.6031 0.0000 0.0000 -0.0000 0.0000 0.0000 -0.0000 0.7725 1.8777 -58.3801 -0.0971 -0.0000 0.0000 -0.8506 -8.6328 43.7485 -0.1185 0.0000 -0.0000 0.2005 -3.4496 5.8561 -7.0444 -0.0000 0.0000 -0.6065 1.3879 -29.3552 -1.6278 0.0000 0.0000
 -0.2500 -0.2926 23.7290 -3.6603 -1.6415 -178.2065 -1.4410 -0.3922 0.2125 -0.2953 0.6580 0.0007 -0.3320 1.8931 -4.3819 -1.1879 -0.1194 0.0507 -3.7179 -13.0843 9.9692 9.3486 -4.5164 37.7852 -5.1411 1.2284 -6.6213 -25.4808 -2.8163 -12.1850 -0.0000 0.0000 12.1803 12.8204 -14.5543 -8.3994 -0.0000 -0.0000 -0.0000 -0.0000 -0.0000 -0.0000 -7.9684 -6.1393 -2.4700 -19.6334 14.1424 -0.5384 -0.0000 0.0000 -9.3415 -4.2522 -17.3290 20.6151 -0.0000 0.0000 -0.0000 -0.0000 0.0000 0.0000 0.7514 1.8441 -58.3648 -0.1123 -0.0000 -0.0000 -0.8658 -8.6236 43.7402 -0.1158 -0.0000 0.0000 0.1785 -3.4783 5.8757 -7.0421 -0.0000 -0.0000 -0.6062 1.4085 -29.3676 -1.6314 0.0000 0.0000
 -0.2411 -0.2899 23.7292 -3.6726 -1.6450 -178.2167 -1.4408 -0.3999 0.2177 -0.3028 0.6560 -0.0001 -0.3205 1.8925 -4.3801 -1.1798 -0.1202 0.0506 -3.6938 -13.0802 9.9602 9.3582 -4.5119 37.7413 -5.1253 1.2385 -6.6436 -25.4791 -2.8503 -12.2241 -0.0000 0.0000 12.1845 12.8265 -14.4477 -8.4543 -0.0000 0.0000 -0.0000 0.0000 0.0000 0.0000 -7.9749 -6.1476 -2.4679 -19.7352 14.1968 -0.4668 -0.0000 0.0000 -9.3174 -4.2340 -17.3364 20.6273 0.0000 0.0000 -0.0000 0.0000 -0.0000 0.0000 0.7482 1.8104 -58.3494 -0.1288 -0.0000 0.0000 -0.8784 -8.6149 43.7367 -0.1129 -0.0000 0.0000 0.1764 -3.5064 5.9011 -7.0425 0.0000 -0.0000 -0.6055 1.4296 -29.3833 -1.6338 -0.0000 0.0000
 -0.2323 -0.2878 23.7293 -3.7031 -1.6495 -178.2296 -1.4620 -0.4103 0.2206 -0.3093 0.6533 0.0012 -0.3060 1.8972 -4.3744 -1.1701 -0.1223 0.0517 -3.6709 -13.0735 9.9520 9.3678 -4.5076 37.6986 -5.1091 1.2508 -6.6690 -25.4787 -2.8878 -12.2617 -0.0000 0.0000 12.1795 12.8310 -14.3535 -8.5076 -0.0000 0.0000 -0.0000 0.0000 0.0000 0.0000 -7.9801 -6.1508 -2.4639 -19.8430 14.2523 -0.4000 -0.0000 0.0000 -9.2869 -4.2141 -17.3464 20.6336 0.0000 -0.0000 0.0000 0.0000 0.0000 -0.0000 0.7241 1.7766 -58.3346 -0.1451 -0.0000 0.0000 -0.8892 -8.6039 43.7370 -0.1094 -0.0000 0.0000 0.1524 -3.5349 5.9288 -7.0389 0.0000 -0.0000 -0.6060 1.4511 -29.4001 -1.6350 0.0000 -0.0000
 -0.2235 -0.2858 23.7294 -3.7295 -1.6535 -178.2467 -1.4775 -0.4199 0.2242 -0.3166 0.6504 0.0016 -0.2927 1.8994 -4.3620 -1.1596 -0.1238 0.0525 -3.6482 -13.0615 9.9464 9.3772 -4.5032 37.6563 -5.0915 1.2747 -6.6929 -25.4814 -2.9345 -12.3065 0.0000 0.0000 12.1692 12.8356 -14.2713 -8.5617 -0.0000 0.0000 -0.0000 -0.0000 0.0000 0.0000 -7.9815 -6.1490 -2.4557 -19.9532 14.3092 -0.3413 0.0000 -0.0000 -9.2487 -4.1920 -17.3552 20.6373 -0.0000 -0.0000 -0.0000 -0.0000 0.0000 0.0000 0.7033 1.7431 -58.3193 -0.1618 -0.0000 0.0000 -0.8978 -8.5924 43.7422 -0.1057 -0.0000 0.0000 0.1330 -3.5630 5.9604 -7.0357 0.0000 0.0000 -0.6066 1.4725 -29.4171 -1.6354 -0.0000 0.0000
